<?xml version="1.0" encoding="utf-8"?>
<!-- Generator: Adobe Illustrator 25.2.0, SVG Export Plug-In . SVG Version: 6.00 Build 0)  -->
<svg version="1.1" xmlns="http://www.w3.org/2000/svg" xmlns:xlink="http://www.w3.org/1999/xlink" x="0px" y="0px"
	 viewBox="0 0 612 792" style="enable-background:new 0 0 612 792;" xml:space="preserve">
<style type="text/css">
	.st0{display:none;}
	.st1{display:inline;fill:#12B097;stroke:#0E7E87;stroke-width:4;stroke-miterlimit:10;}
	.st2{display:inline;}
	.st3{fill:#FFFFFF;stroke:#000000;stroke-width:4;stroke-miterlimit:10;}
	.st4{fill:#FDE1D2;}
	.st5{fill:none;stroke:#000000;stroke-width:4;stroke-miterlimit:10;}
	.st6{fill:#B68651;stroke:#000000;stroke-width:4;stroke-miterlimit:10;}
	.st7{fill:#FDE1D2;stroke:#000000;stroke-width:4;stroke-miterlimit:10;}
	.st8{display:none;fill:none;stroke:#000000;stroke-width:4;stroke-miterlimit:10;}
	.st9{display:inline;fill:#6CC6AD;stroke:#107E87;stroke-width:4;stroke-miterlimit:10;}
	.st10{display:inline;fill:#FDE1D2;stroke:#107E87;stroke-width:4;stroke-miterlimit:10;}
	.st11{fill:#FBB35B;}
	.st12{fill:#FFF6EE;}
	.st13{fill:#8CCFB8;}
	.st14{fill:#493121;stroke:#000000;stroke-width:4;stroke-miterlimit:10;}
	.st15{fill:#1C0D0D;stroke:#000000;stroke-width:4;stroke-miterlimit:10;}
	.st16{fill:#12B097;stroke:#0E7E87;stroke-width:4;stroke-miterlimit:10;}
	.st17{fill:#D6DDF0;stroke:#9997CA;stroke-width:4;stroke-miterlimit:10;}
	.st18{fill:#6CC6AD;stroke:#107E87;stroke-width:4;stroke-miterlimit:10;}
	.st19{fill:#AF6628;stroke:#994D2C;stroke-width:4;stroke-miterlimit:10;}
	.st20{fill:#CEB578;stroke:#C5964E;stroke-width:4;stroke-miterlimit:10;}
	.st21{fill:none;stroke:#994D2C;stroke-width:4;stroke-miterlimit:10;}
	.st22{fill:#937B61;}
	.st23{fill:#FEF0F1;}
	.st24{fill:#FEEA73;}
	.st25{fill:#ABDBC9;}
	.st26{fill:#663B35;}
</style>
<g id="Layer_1" class="st0">
	<path class="st1" d="M231.9,271.25v141.08c0,1.46-1.34,2.64-3,2.64H27.4c-1.66,0-3-1.18-3-2.64V271.25
		c0-30.9,24.5-56.76,57.34-63.39c8.17,15.01,25.88,25.4,46.41,25.4s38.24-10.39,46.41-25.4c13.75,2.77,26.03,8.92,35.67,17.39
		C223.62,237.02,231.9,253.28,231.9,271.25z"/>
	<g class="st2">
		<path class="st3" d="M162.84,98.91"/>
		<g>
			<path class="st4" d="M114.23,112.75c-2.23-2.94-4.38-5.93-6.46-8.98"/>
			<g>
				<path class="st4" d="M122.86,107.7c-2.23-2.94-4.38-5.93-6.46-8.98c-0.63-1.17-1.49-2.1-2.58-2.81c-0.97-0.88-2.1-1.48-3.4-1.79
					c-1.33-0.42-2.66-0.48-3.99-0.18c-1.33,0.06-2.57,0.46-3.72,1.19c-0.67,0.52-1.35,1.04-2.02,1.56c-1.24,1.25-2.1,2.72-2.57,4.41
					c-0.12,0.89-0.24,1.77-0.36,2.66c0.01,1.81,0.46,3.49,1.37,5.05c2.08,3.04,4.24,6.04,6.46,8.98c0.63,1.17,1.49,2.1,2.58,2.81
					c0.97,0.88,2.1,1.48,3.4,1.79c1.33,0.42,2.66,0.48,3.99,0.18c1.33-0.06,2.57-0.46,3.72-1.19c0.67-0.52,1.35-1.04,2.02-1.56
					c1.24-1.25,2.1-2.72,2.57-4.41c0.12-0.89,0.24-1.77,0.36-2.66C124.22,110.94,123.77,109.26,122.86,107.7L122.86,107.7z"/>
			</g>
		</g>
		<path class="st5" d="M111.12,106.51l-0.16,0.13l-0.01-0.01C111.01,106.59,111.06,106.55,111.12,106.51z"/>
		<path class="st6" d="M205.49,121.36c0,4.03-1.1,7.77-2.98,10.87c0.01,0.32,0.01,0.65,0.01,0.97c0,14.8-9.37,27.41-22.5,32.22
			c6.41-7.39,11.25-16.16,14.03-25.81c1.39-4.79,2.26-9.8,2.56-14.97c0.09-1.36,0.13-2.72,0.13-4.1c0-1.3-0.04-2.6-0.11-3.88
			c-0.05-1.01-0.13-2.01-0.23-3.01c-0.05-0.53-0.11-1.05-0.18-1.58c-0.36-0.04-0.73-0.09-1.09-0.14c-6.5-0.85-12.71-2.6-18.52-5.11
			c-1.33-0.57-2.63-1.18-3.91-1.83c-5.32,4-11.73,6.63-18.72,7.35c-1.28,0.13-2.59,0.2-3.91,0.2c-1.78,0-3.53-0.12-5.24-0.37
			c-1.09-0.14-2.16-0.34-3.21-0.59c-4.85-1.1-9.34-3.15-13.27-5.94c-2.92-2.06-5.54-4.53-7.75-7.32c0.18-0.77,0.33-1.55,0.45-2.34
			c-0.34,0.52-0.7,1.04-1.07,1.54c-0.77,1.07-1.6,2.09-2.48,3.08c-0.25,0.3-0.52,0.59-0.79,0.88c-0.36,0.39-0.73,0.77-1.11,1.14
			c-0.3,0.31-0.61,0.6-0.92,0.9c-0.03,0.03-0.07,0.06-0.11,0.1c-0.38,0.35-0.78,0.71-1.18,1.05c-0.33,0.29-0.67,0.57-1.01,0.84
			c-0.19,0.17-0.37,0.32-0.56,0.45c-0.16,0.15-0.33,0.27-0.49,0.39l-0.04,0.03l-0.06,0.04c-0.03,0.02-0.06,0.04-0.09,0.07
			c-0.01,0.01-0.01,0.01-0.02,0.02c-0.06,0.04-0.11,0.08-0.17,0.12l-1.19-1.14l-4.89-4.69l4.71,7.63l1.08,1.75
			c-1.47-0.08-2.9-0.27-4.3-0.56c-0.45-0.09-0.9-0.19-1.34-0.3c-6.64-1.68-12.41-5.57-16.46-10.85c-0.28,0.92-0.6,1.83-0.97,2.71
			c-2.15,5.26-5.75,9.79-10.3,13.08c-0.36,0.26-0.72,0.51-1.1,0.75c-0.79,0.53-1.62,1.02-2.47,1.46c-4.22,2.25-9.04,3.52-14.15,3.52
			c-0.01,0.18-0.01,0.37-0.01,0.55c0,2.55,0.14,5.06,0.4,7.54c0.1,0.81,0.2,1.61,0.32,2.41c0.28,1.92,0.63,3.81,1.07,5.67
			c2.61,11.26,8.01,21.45,15.42,29.82c-9.33,0.98-19.5-5.37-24.62-16.19c-2.63-5.56-3.5-11.4-2.82-16.66
			c-3.15-2.33-5.59-5.79-6.84-9.86c-0.62-1.98-0.95-4.11-0.95-6.33c0-1.55,0.16-3.06,0.48-4.5c-4.43-6.78-6.99-14.88-6.99-23.58
			c0-9.97,3.37-19.16,9.04-26.48c4.52-18.7,21.36-32.59,41.45-32.59c2.68,0,5.3,0.25,7.85,0.73c8.92-8.86,21.22-14.32,34.78-14.32
			c16.87,0,31.77,8.45,40.69,21.36c23.92,4.82,41.94,25.96,41.94,51.3c0,9.18-2.37,17.81-6.53,25.31
			C205.05,116.39,205.49,118.82,205.49,121.36z"/>
		<path class="st5" d="M111.82,105.96c-0.16,0.14-0.33,0.26-0.5,0.38"/>
		<path class="st5" d="M106.99,101.94"/>
		<path class="st5" d="M110.66,110.18h0.01c0.03,0,0.07-0.01,0.09-0.03"/>
		<path class="st7" d="M109.76,105.49l1.19,1.14l0.01,0.01l0.16-0.13c0.01-0.01,0.01-0.01,0.02-0.02c0.03-0.03,0.06-0.05,0.09-0.07
			l0.06-0.04l0.04-0.03c0.16-0.12,0.33-0.24,0.49-0.39c0.19-0.13,0.37-0.28,0.56-0.45c0.34-0.26,0.68-0.54,1.01-0.84
			c0.4-0.34,0.8-0.7,1.18-1.05c0.04-0.04,0.08-0.07,0.11-0.1c0.31-0.29,0.63-0.59,0.92-0.9c0.38-0.37,0.75-0.75,1.11-1.14
			c0.27-0.29,0.54-0.58,0.79-0.88c0.88-0.99,1.71-2.01,2.48-3.08c0.19,0.27,0.4,0.54,0.62,0.8c2.21,2.79,4.83,5.26,7.75,7.32
			c3.93,2.79,8.42,4.84,13.27,5.94c1.05,0.25,2.12,0.45,3.21,0.59c1.71,0.25,3.46,0.37,5.24,0.37c1.32,0,2.63-0.07,3.91-0.2
			c6.99-0.72,13.4-3.35,18.72-7.35c1.28,0.65,2.58,1.26,3.91,1.83c5.81,2.51,12.02,4.26,18.52,5.11c0.36,0.05,0.73,0.1,1.09,0.14
			c0.07,0.53,0.13,1.05,0.18,1.58c0.1,1,0.18,2,0.23,3.01c0.07,1.28,0.11,2.58,0.11,3.88c0,1.38-0.04,2.74-0.13,4.1
			c-0.3,5.17-1.17,10.18-2.56,14.97c-2.78,9.65-7.62,18.42-14.03,25.81h-0.01c-1.64,1.9-3.39,3.71-5.23,5.41
			c-2.31,2.16-4.76,4.14-7.35,5.95c-8.84,6.2-19.22,10.36-30.45,11.8c-2.89,0.37-5.84,0.56-8.83,0.56c-2.87,0-5.7-0.18-8.48-0.52
			c-11.2-1.38-21.56-5.46-30.42-11.57c-2.73-1.89-5.32-3.96-7.74-6.22c-1.2-1.1-2.35-2.25-3.46-3.44c-0.43-0.46-0.86-0.94-1.28-1.41
			c-7.41-8.37-12.81-18.56-15.42-29.82c-0.44-1.86-0.79-3.75-1.07-5.67c-0.12-0.8-0.22-1.6-0.32-2.41c-0.26-2.48-0.4-4.99-0.4-7.54
			c0-0.18,0-0.37,0.01-0.55c5.11,0,9.93-1.27,14.15-3.52c0.85-0.44,1.68-0.93,2.47-1.46c0.38-0.24,0.74-0.49,1.1-0.75
			c4.55-3.29,8.15-7.82,10.3-13.08c0.37-0.88,0.69-1.79,0.97-2.71c4.05,5.28,9.82,9.17,16.46,10.85c0.44,0.11,0.89,0.21,1.34,0.3
			c1.4,0.29,2.83,0.48,4.3,0.56"/>
		<path class="st8" d="M110.95,106.63c-0.03,0.02-0.06,0.05-0.09,0.07"/>
		<path class="st3" d="M111.12,110.18"/>
	</g>
	<path class="st9" d="M174.56,207.86c-8.17,15.01-25.88,25.4-46.41,25.4s-38.24-10.39-46.41-25.4c3.76-0.77,7.63-1.27,11.59-1.51
		c7.22,10.14,20.22,16.91,35.06,16.91c14.83,0,27.82-6.75,35.05-16.88C167.24,206.63,170.95,207.12,174.56,207.86z"/>
	<path class="st10" d="M163.44,206.38c-7.23,10.13-20.22,16.88-35.05,16.88c-14.84,0-27.84-6.77-35.06-16.91
		c1.67-0.1,3.36-0.15,5.07-0.15h59.5C159.77,206.2,161.61,206.26,163.44,206.38z"/>
	<g class="st2">
		<g>
			<path class="st11" d="M55.49,56.27c3.22,0,3.22-5,0-5C52.28,51.27,52.27,56.27,55.49,56.27L55.49,56.27z"/>
		</g>
	</g>
	<g class="st2">
		<g>
			<path class="st11" d="M64.65,47.96C69.8,42,78.08,39.16,85.78,41c3.13,0.75,4.46-4.07,1.33-4.82c-9.35-2.23-19.69,0.94-26,8.25
				c-0.88,1.02-1,2.53,0,3.54C62.02,48.86,63.77,48.99,64.65,47.96L64.65,47.96z"/>
		</g>
	</g>
	<g class="st2">
		<g>
			<path class="st12" d="M81.48,161.34c4.32,4.44,9.28,8.28,14.69,11.3c1.14,0.64,2.78,0.31,3.42-0.9c0.62-1.18,0.32-2.74-0.9-3.42
				c-1.27-0.71-2.52-1.46-3.73-2.26c-1.16-0.76-2.59-1.78-3.5-2.48c0.15,0.12-0.21-0.16-0.24-0.19c-0.13-0.1-0.26-0.21-0.39-0.31
				c-0.29-0.23-0.58-0.47-0.87-0.71c-0.58-0.48-1.14-0.97-1.7-1.47c-1.12-1-2.19-2.04-3.24-3.11c-0.91-0.94-2.63-0.99-3.54,0
				C80.55,158.81,80.5,160.34,81.48,161.34L81.48,161.34z"/>
		</g>
	</g>
	<g class="st2">
		<g>
			<path class="st12" d="M68.33,141.26c1.06,2.55,2.24,5.03,3.62,7.43c0.65,1.14,2.29,1.62,3.42,0.9c1.15-0.74,1.59-2.21,0.9-3.42
				c-1.2-2.09-2.27-4.25-3.21-6.47c0.08,0.2,0.17,0.4,0.25,0.6c-0.05-0.12-0.1-0.24-0.15-0.36c-0.26-0.63-0.54-1.14-1.15-1.49
				c-0.54-0.31-1.33-0.45-1.93-0.25c-0.6,0.2-1.19,0.57-1.49,1.15C68.29,139.89,68.08,140.66,68.33,141.26L68.33,141.26z"/>
		</g>
	</g>
	<g class="st2">
		<g>
			<path class="st13" d="M59.42,223.39c-6.11,1.79-11.44,6.14-14.28,11.86c-0.58,1.17-0.35,2.76,0.9,3.42
				c1.13,0.6,2.8,0.35,3.42-0.9c0.31-0.63,0.66-1.25,1.03-1.85c0.17-0.27,0.35-0.54,0.53-0.8c0.11-0.16,0.22-0.31,0.34-0.47
				c0.28-0.38-0.17,0.2,0.02-0.03c0.89-1.07,1.82-2.07,2.88-2.97c0.12-0.1,0.25-0.21,0.37-0.31c0.21-0.17,0.29-0.22,0.03-0.02
				c0.29-0.21,0.57-0.42,0.86-0.62c0.56-0.38,1.13-0.73,1.73-1.06c0.31-0.17,0.62-0.33,0.94-0.48c0.14-0.07,0.29-0.14,0.44-0.2
				c0.1-0.05,0.65-0.35,0.11-0.05c0.59-0.33,1.35-0.5,2-0.69c1.25-0.37,2.17-1.78,1.75-3.08C62.08,223.86,60.76,223,59.42,223.39
				L59.42,223.39z"/>
		</g>
	</g>
	<g class="st2">
		<g>
			<path class="st13" d="M31.6,317.5c0,10.25,0,20.5,0,30.75c0,3.22,5,3.22,5,0c0-10.25,0-20.5,0-30.75
				C36.6,314.29,31.6,314.28,31.6,317.5L31.6,317.5z"/>
		</g>
	</g>
	<g class="st2">
		<g>
			<path class="st13" d="M38.34,245.99c0,0.22,0,0.43,0,0.65c-0.01,0.34,0.06,0.67,0.22,0.96c0.1,0.31,0.27,0.58,0.52,0.8
				c0.23,0.24,0.49,0.42,0.8,0.52c0.3,0.16,0.62,0.23,0.96,0.22c0.22-0.03,0.44-0.06,0.66-0.09c0.42-0.12,0.79-0.33,1.1-0.64
				c0.13-0.17,0.26-0.34,0.39-0.51c0.23-0.39,0.34-0.81,0.34-1.26c0-0.22,0-0.43,0-0.65c0.01-0.34-0.06-0.67-0.22-0.96
				c-0.1-0.31-0.27-0.58-0.52-0.8c-0.23-0.24-0.49-0.42-0.8-0.52c-0.3-0.16-0.62-0.23-0.96-0.22c-0.22,0.03-0.44,0.06-0.66,0.09
				c-0.42,0.12-0.79,0.33-1.1,0.64c-0.13,0.17-0.26,0.34-0.39,0.51C38.46,245.12,38.34,245.54,38.34,245.99L38.34,245.99z"/>
		</g>
	</g>
</g>
<g id="Layer_2">
	<g>
		<g>
			<path class="st3" d="M441.51,451.7"/>
			<path class="st5" d="M385.66,454.73"/>
			<path class="st5" d="M370.59,531.55c-0.91-0.53-1.79-1.11-2.67-1.71c-2.73-1.89-5.32-3.95-7.74-6.22
				c-1.2-1.1-2.35-2.25-3.46-3.44c-0.43-0.46-0.86-0.94-1.28-1.41c-5.58-6.3-10.01-13.63-12.97-21.66c0.2,0.28,0.41,0.55,0.63,0.82
				c0.41,1.13,0.86,2.24,1.34,3.34c0.24,0.53,0.48,1.06,0.73,1.59c0.07,0.15,0.15,0.31,0.22,0.47c0.27,0.56,0.55,1.12,0.83,1.68
				c0.34,0.66,0.69,1.31,1.05,1.95c0.33,0.6,0.67,1.19,1.02,1.78c0.03,0.05,0.06,0.09,0.08,0.14c0.25,0.41,0.5,0.82,0.76,1.22
				c0.25,0.41,0.51,0.8,0.78,1.2c0.32,0.49,0.65,0.99,0.99,1.47c0.23,0.33,0.46,0.66,0.7,0.99c0.17,0.23,0.34,0.46,0.51,0.69
				c0.04,0.06,0.08,0.11,0.12,0.17c0.03,0.04,0.07,0.09,0.1,0.13c0.19,0.25,0.37,0.5,0.56,0.74c0.24,0.31,0.48,0.62,0.74,0.92
				c0.29,0.38,0.6,0.76,0.92,1.13c0.41,0.5,0.83,0.99,1.26,1.47c0.46,0.53,0.94,1.05,1.43,1.56c0.48,0.52,0.97,1.03,1.47,1.52
				c0.5,0.5,1.01,0.99,1.53,1.48c0.44,0.41,0.89,0.83,1.35,1.23c0.11,0.1,0.22,0.19,0.33,0.29c0.35,0.31,0.71,0.62,1.07,0.92
				c0.22,0.18,0.44,0.36,0.66,0.54c0.47,0.39,0.94,0.77,1.42,1.14c0.56,0.44,1.12,0.86,1.7,1.28c0.46,0.34,0.93,0.67,1.4,0.99
				c0.3,0.21,0.61,0.42,0.92,0.62c0.2,0.14,0.41,0.28,0.62,0.41C370,531.18,370.29,531.37,370.59,531.55z"/>
			<path class="st5" d="M370.6,531.55c0.08,0.05,0.16,0.1,0.24,0.16C370.76,531.67,370.67,531.62,370.6,531.55L370.6,531.55z"/>
			<path class="st5" d="M474.19,486.25c-0.39,2.09-0.89,4.14-1.47,6.15c-2.78,9.65-7.62,18.42-14.03,25.81h-0.01
				c-1.64,1.9-3.39,3.71-5.23,5.41c-2.31,2.16-4.76,4.14-7.35,5.95c-8.84,6.2-19.22,10.36-30.45,11.8
				c-1.79,0.23-3.59,0.39-5.42,0.47c31.04-1.6,56.58-24.03,62.89-53.58C473.48,487.6,473.84,486.93,474.19,486.25z"/>
			<path class="st8" d="M389.62,459.42c-0.03,0.02-0.06,0.05-0.09,0.07"/>
		</g>
		<path class="st14" d="M474.62,474c0,4.89-0.52,9.66-1.5,14.26c-6.31,29.55-31.85,51.98-62.89,53.58
			c-0.45,0.02-0.91,0.04-1.38,0.05c-0.59,0.03-1.2,0.04-1.8,0.04h-0.36c-0.67,0-1.33-0.01-1.99-0.03h-0.08
			c-0.68-0.03-1.36-0.06-2.03-0.1c-0.02,0.01-0.05,0.01-0.08,0c-1.4-0.08-2.79-0.21-4.17-0.39c-0.66-0.08-1.31-0.17-1.96-0.27
			c-0.65-0.1-1.3-0.2-1.94-0.32c-0.65-0.12-1.29-0.25-1.93-0.38c-0.64-0.14-1.27-0.28-1.9-0.43c-0.84-0.2-1.67-0.42-2.5-0.66
			c-0.01,0.01-0.01,0.01-0.02,0c-0.66-0.19-1.31-0.39-1.96-0.59c-0.61-0.2-1.22-0.4-1.82-0.61c-0.09-0.02-0.17-0.05-0.26-0.09
			c-0.58-0.2-1.15-0.41-1.71-0.63c-0.05-0.01-0.1-0.03-0.15-0.05c-0.43-0.17-0.86-0.34-1.29-0.52c-1.32-0.54-2.63-1.12-3.91-1.75
			c-0.34-0.16-0.69-0.33-1.03-0.51c-0.11-0.05-0.21-0.11-0.32-0.17c-0.45-0.22-0.89-0.46-1.34-0.7c-0.75-0.41-1.48-0.82-2.21-1.26
			c-0.27-0.16-0.53-0.32-0.8-0.48c-0.15-0.1-0.3-0.19-0.45-0.28c-0.08-0.06-0.16-0.11-0.24-0.16h-0.01
			c-0.3-0.18-0.59-0.37-0.88-0.56c-0.21-0.13-0.42-0.27-0.62-0.41c-0.31-0.2-0.62-0.41-0.92-0.62c-0.47-0.32-0.94-0.65-1.4-0.99
			c-0.58-0.42-1.14-0.84-1.7-1.28c-0.48-0.37-0.95-0.75-1.42-1.14c-0.22-0.18-0.44-0.36-0.66-0.54c-0.36-0.3-0.72-0.61-1.07-0.92
			c-0.11-0.1-0.22-0.19-0.33-0.29c-0.46-0.4-0.91-0.82-1.35-1.23c-0.52-0.49-1.03-0.98-1.53-1.48c-0.5-0.49-0.99-1-1.47-1.52
			c-0.49-0.51-0.97-1.03-1.43-1.56c-0.43-0.48-0.85-0.97-1.26-1.47c-0.32-0.37-0.63-0.75-0.92-1.13c-0.26-0.3-0.5-0.61-0.74-0.92
			c-0.19-0.24-0.37-0.49-0.56-0.74c-0.03-0.04-0.07-0.09-0.1-0.13c-0.04-0.06-0.08-0.11-0.12-0.17c-0.17-0.23-0.34-0.46-0.51-0.69
			c-0.24-0.33-0.47-0.66-0.7-0.99c-0.34-0.48-0.67-0.98-0.99-1.47c-0.27-0.4-0.53-0.79-0.78-1.2c-0.26-0.4-0.51-0.81-0.76-1.22
			c-0.02-0.05-0.05-0.09-0.08-0.14c-0.35-0.59-0.69-1.18-1.02-1.78c-0.36-0.64-0.71-1.29-1.05-1.95c-0.28-0.56-0.56-1.12-0.83-1.68
			c-0.07-0.16-0.15-0.32-0.22-0.47c-0.25-0.53-0.49-1.06-0.73-1.59c-0.48-1.1-0.93-2.21-1.34-3.34c-0.15-0.36-0.29-0.73-0.42-1.1
			c-0.16-0.45-0.31-0.9-0.46-1.35c-0.02-0.06-0.04-0.12-0.06-0.18c-0.08-0.24-0.16-0.48-0.23-0.72c-0.12-0.35-0.22-0.7-0.33-1.06
			c-0.09-0.28-0.17-0.56-0.25-0.85c-0.01-0.04-0.03-0.08-0.04-0.13c-0.15-0.54-0.3-1.09-0.44-1.64c-0.14-0.54-0.27-1.1-0.4-1.65
			c-0.04-0.19-0.09-0.38-0.13-0.57c-0.12-0.55-0.23-1.1-0.34-1.66c-0.05-0.23-0.09-0.45-0.13-0.68c-0.1-0.52-0.19-1.05-0.27-1.58
			c-0.02-0.15-0.05-0.3-0.07-0.45c-0.09-0.61-0.18-1.22-0.25-1.83c-0.01-0.09-0.03-0.18-0.03-0.28c-0.01-0.09-0.02-0.18-0.03-0.27
			c-0.01-0.06-0.01-0.11-0.02-0.17c-0.08-0.58-0.13-1.16-0.18-1.75c-0.07-0.74-0.12-1.49-0.16-2.24c-0.05-0.76-0.07-1.51-0.09-2.27
			c-0.01-0.5-0.02-1-0.02-1.5c0-3.15,0.21-6.25,0.64-9.29c3.88,1.69,8.06,2.83,12.43,3.34c1.69,0.2,3.42,0.3,5.17,0.3
			c7.9,0,15.32-2.07,21.74-5.7c9.69,7.98,22.1,12.76,35.62,12.76c3.97,0,7.85-0.41,11.58-1.2c-9.73-4.46-17.96-11.63-23.73-20.55
			c9.44,3.72,19.73,5.77,30.5,5.77c2.26,0,4.5-0.09,6.72-0.27c6.03-0.48,11.89-1.61,17.49-3.31c4.69-1.42,9.21-3.24,13.51-5.43
			c1.69,4.56,2.9,9.36,3.57,14.32c0.13,0.94,0.24,1.89,0.33,2.85c0.06,0.58,0.1,1.16,0.14,1.74c0.05,0.68,0.09,1.37,0.11,2.06
			c0.02,0.49,0.03,0.98,0.03,1.48c0.01,0.13,0.01,0.27,0.01,0.4C474.62,473.51,474.62,473.76,474.62,474z"/>
		<path class="st15" d="M481.3,456.6c0,10.68-2.56,20.75-7.11,29.65c-0.35,0.68-0.71,1.35-1.07,2.01c0.98-4.6,1.5-9.37,1.5-14.26
			c0-0.24,0-0.49-0.01-0.73c0-0.13,0-0.27-0.01-0.4c0-0.5-0.01-0.99-0.03-1.48c-0.02-0.69-0.06-1.38-0.11-2.06
			c-0.04-0.58-0.08-1.16-0.14-1.74c-0.09-0.96-0.2-1.91-0.33-2.85c-0.67-4.96-1.88-9.76-3.57-14.32c-4.3,2.19-8.82,4.01-13.51,5.43
			c-5.6,1.7-11.46,2.83-17.49,3.31c-2.22,0.18-4.46,0.27-6.72,0.27c-10.77,0-21.06-2.05-30.5-5.77c5.77,8.92,14,16.09,23.73,20.55
			c-3.73,0.79-7.61,1.2-11.58,1.2c-13.52,0-25.93-4.78-35.62-12.76c-6.42,3.63-13.84,5.7-21.74,5.7c-1.75,0-3.48-0.1-5.17-0.3
			c-4.37-0.51-8.55-1.65-12.43-3.34c-0.43,3.04-0.64,6.14-0.64,9.29c0,0.5,0.01,1,0.02,1.5c0.02,0.76,0.04,1.51,0.09,2.27
			c0.04,0.75,0.09,1.5,0.16,2.24c0.05,0.59,0.1,1.17,0.18,1.75c0.01,0.06,0.01,0.11,0.02,0.17c0.01,0.09,0.02,0.18,0.03,0.27
			c0,0.1,0.02,0.19,0.03,0.28c0.07,0.61,0.16,1.22,0.25,1.83c0.02,0.15,0.05,0.3,0.07,0.45c0.08,0.53,0.17,1.06,0.27,1.58
			c0.04,0.23,0.08,0.45,0.13,0.68c0.11,0.56,0.22,1.11,0.34,1.66c0.04,0.19,0.09,0.38,0.13,0.57c0.13,0.55,0.26,1.11,0.4,1.65
			c0.14,0.55,0.29,1.1,0.44,1.64c0.01,0.05,0.03,0.09,0.04,0.13c0.08,0.29,0.16,0.57,0.25,0.85c0.11,0.36,0.21,0.71,0.33,1.06
			c0.07,0.24,0.15,0.48,0.23,0.72c0.02,0.06,0.04,0.12,0.06,0.18c0.15,0.45,0.3,0.9,0.46,1.35c0.13,0.37,0.27,0.74,0.42,1.1
			c-0.22-0.27-0.43-0.54-0.63-0.82c-6.81-9.04-10.85-20.29-10.85-32.48c0-23.14,14.54-42.88,34.99-50.58
			c11.96-13.9,29.68-22.69,49.45-22.69C452.09,391.36,481.3,420.57,481.3,456.6z"/>
	</g>
	<g>
		<path class="st16" d="M406.82,586.05"/>
		<path class="st17" d="M453.23,560.65c13.75,2.77,26.03,8.92,35.67,17.39c13.39,11.77,21.67,28.03,21.67,46v141.08
			c0,1.46-1.34,2.64-3,2.64h-201.5c-1.66,0-3-1.18-3-2.64V624.04c0-30.9,24.5-56.76,57.34-63.39H453.23z"/>
		<polygon class="st18" points="428.96,586.05 419.03,609.17 393.51,609.17 383.58,586.05 388.57,560.65 424.2,560.65 		"/>
		<polygon class="st16" points="433.39,719.09 416.97,748.49 406.82,757.83 395.32,748.49 378.9,719.09 393.25,609.17 
			419.03,609.17 		"/>
	</g>
	<g>
		<path class="st5" d="M434.74,748.49"/>
		<path class="st19" d="M445.94,687.43v87.44h-32.2c-8.83,0-15.99-7.16-15.99-15.99v-55.46c0-8.83,7.16-15.99,15.99-15.99H445.94z"
			/>
		<path class="st19" d="M516.51,703.42v55.46c0,8.83-7.15,15.99-15.98,15.99h-32.2v-87.44h32.2
			C509.36,687.43,516.51,694.59,516.51,703.42z"/>
		<rect x="445.94" y="687.43" class="st20" width="22.39" height="87.44"/>
		<path class="st5" d="M457.13,687.43"/>
		<rect x="434.74" y="669.81" class="st21" width="44.78" height="17.62"/>
		<path class="st5" d="M457.13,687.43"/>
	</g>
	<g>
		<g>
			<path class="st22" d="M361.27,516.54c3.38,3.47,7.26,6.49,11.47,8.88c1.14,0.64,2.78,0.31,3.42-0.9c0.63-1.18,0.32-2.73-0.9-3.42
				c-0.98-0.56-1.94-1.14-2.88-1.76c-0.48-0.32-0.96-0.65-1.43-0.99c-0.24-0.17-0.47-0.34-0.7-0.51c-0.1-0.08-0.21-0.15-0.31-0.23
				c-0.06-0.04-0.5-0.35-0.21-0.16c0.27,0.17-0.08-0.06-0.13-0.1c-0.1-0.08-0.2-0.16-0.3-0.24c-0.23-0.18-0.45-0.37-0.67-0.55
				c-0.45-0.37-0.88-0.75-1.32-1.14c-0.86-0.77-1.7-1.58-2.51-2.41c-0.91-0.94-2.63-0.99-3.54,0
				C360.35,514.02,360.3,515.54,361.27,516.54L361.27,516.54z"/>
		</g>
	</g>
	<g>
		<g>
			<path class="st22" d="M349.32,496.85c0.74,2.24,1.65,4.42,2.68,6.54c0.26,0.54,0.93,0.99,1.49,1.15c0.6,0.16,1.4,0.09,1.93-0.25
				c0.53-0.34,1-0.86,1.15-1.49c0.16-0.68,0.06-1.29-0.25-1.93c-0.38-0.78-0.74-1.56-1.07-2.36c0.08,0.2,0.17,0.4,0.25,0.6
				c-0.5-1.18-0.95-2.37-1.35-3.58c-0.21-0.62-0.58-1.16-1.15-1.49c-0.54-0.31-1.33-0.45-1.93-0.25c-0.6,0.2-1.19,0.57-1.49,1.15
				C349.26,495.5,349.1,496.21,349.32,496.85L349.32,496.85z"/>
		</g>
	</g>
	<g>
		<g>
			<path class="st23" d="M320,601.79c0.12-0.34,0.24-0.68,0.38-1.02c0.02-0.05,0.31-0.71,0.08-0.21c0.06-0.13,0.12-0.27,0.18-0.4
				c0.32-0.69,0.66-1.37,1.04-2.04c0.36-0.63,0.74-1.25,1.15-1.85c0.23-0.33,0.46-0.65,0.7-0.97c0.13-0.18,0.16-0.2,0.01-0.01
				c0.14-0.17,0.27-0.34,0.41-0.51c0.93-1.12,1.95-2.16,3.05-3.11c0.28-0.24,0.56-0.46,0.84-0.69c-0.41,0.34,0.14-0.11,0.19-0.14
				c0.15-0.11,0.29-0.21,0.44-0.32c0.62-0.44,1.27-0.85,1.93-1.23c1.13-0.66,1.63-2.29,0.9-3.42c-0.73-1.14-2.21-1.6-3.42-0.9
				c-5.94,3.47-10.41,9.01-12.68,15.48c-0.43,1.24,0.49,2.79,1.75,3.08C318.32,603.85,319.53,603.11,320,601.79L320,601.79z"/>
		</g>
	</g>
	<g>
		<g>
			<path class="st23" d="M315.89,612.32c0-0.32,0-0.63,0-0.95c0.01-0.34-0.06-0.67-0.22-0.96c-0.1-0.31-0.27-0.58-0.52-0.8
				c-0.23-0.24-0.49-0.42-0.8-0.52c-0.3-0.16-0.62-0.23-0.96-0.22c-0.22,0.03-0.44,0.06-0.66,0.09c-0.42,0.12-0.79,0.33-1.1,0.64
				c-0.13,0.17-0.26,0.34-0.39,0.51c-0.23,0.39-0.34,0.81-0.34,1.26c0,0.32,0,0.63,0,0.95c-0.01,0.34,0.06,0.67,0.22,0.96
				c0.1,0.31,0.27,0.58,0.52,0.8c0.23,0.24,0.49,0.42,0.8,0.52c0.3,0.16,0.62,0.23,0.96,0.22c0.22-0.03,0.44-0.06,0.66-0.09
				c0.42-0.12,0.79-0.33,1.1-0.64c0.13-0.17,0.26-0.34,0.39-0.51C315.78,613.2,315.89,612.78,315.89,612.32L315.89,612.32z"/>
		</g>
	</g>
	<g>
		<g>
			<path class="st23" d="M309.95,674.72c0,7.88,0,15.76,0,23.63c0,3.22,5,3.22,5,0c0-7.88,0-15.76,0-23.63
				C314.95,671.5,309.95,671.5,309.95,674.72L309.95,674.72z"/>
		</g>
	</g>
	<g>
		<g>
			<path class="st24" d="M403.54,719.15c0,6.93,0,13.87,0,20.8c0,3.22,5,3.22,5,0c0-6.93,0-13.87,0-20.8
				C408.54,715.94,403.54,715.93,403.54,719.15L403.54,719.15z"/>
		</g>
	</g>
	<g>
		<g>
			<path class="st24" d="M406.99,707.47c3.22,0,3.22-5,0-5C403.77,702.47,403.77,707.47,406.99,707.47L406.99,707.47z"/>
		</g>
	</g>
	<g>
		<g>
			<path class="st25" d="M390.58,586.2c2.21,5.04,4.41,10.08,6.62,15.12c0.53,1.2,2.38,1.57,3.42,0.9c1.25-0.8,1.46-2.13,0.9-3.42
				c-2.21-5.04-4.41-10.08-6.62-15.12c-0.53-1.2-2.38-1.57-3.42-0.9C390.23,583.58,390.02,584.91,390.58,586.2L390.58,586.2z"/>
		</g>
	</g>
	<g>
		<g>
			<path class="st13" d="M392.66,658.28c-0.97,7.39-1.94,14.78-2.92,22.17c-0.18,1.34,1.28,2.5,2.5,2.5c1.5,0,2.32-1.16,2.5-2.5
				c0.97-7.39,1.94-14.78,2.92-22.17c0.18-1.34-1.28-2.5-2.5-2.5C393.67,655.78,392.84,656.93,392.66,658.28L392.66,658.28z"/>
		</g>
	</g>
	<g>
		<g>
			<path class="st13" d="M396.22,631.26c-0.21,1.62-0.43,3.23-0.64,4.85c-0.08,0.59,0.34,1.37,0.73,1.77
				c0.43,0.43,1.15,0.76,1.77,0.73c0.65-0.03,1.32-0.24,1.77-0.73c0.13-0.17,0.26-0.34,0.39-0.51c0.23-0.39,0.34-0.81,0.34-1.26
				c0.21-1.62,0.43-3.23,0.64-4.85c0.08-0.59-0.34-1.37-0.73-1.77c-0.43-0.43-1.15-0.76-1.77-0.73c-0.65,0.03-1.32,0.24-1.77,0.73
				c-0.13,0.17-0.26,0.34-0.39,0.51C396.33,630.39,396.22,630.81,396.22,631.26L396.22,631.26z"/>
		</g>
	</g>
	<g>
		<g>
			<path class="st26" d="M355.81,434.62c0.69-0.67,1.39-1.33,2.12-1.95c0.35-0.3,0.71-0.6,1.08-0.89c0.09-0.07,0.17-0.14,0.26-0.2
				c0.44-0.35-0.31,0.23-0.05,0.04c0.2-0.15,0.39-0.3,0.59-0.44c1.55-1.14,3.18-2.16,4.88-3.06c1.16-0.61,1.61-2.32,0.9-3.42
				c-0.76-1.18-2.18-1.55-3.42-0.9c-3.63,1.92-6.97,4.42-9.89,7.3c-0.93,0.92-0.99,2.63,0,3.54
				C353.28,435.55,354.81,435.6,355.81,434.62L355.81,434.62z"/>
		</g>
	</g>
	<g>
		<g>
			<path class="st26" d="M374.14,419.4c0,0,0-0.01,0-0.01c0.03,0.22,0.06,0.44,0.09,0.66c0-0.02,0-0.04,0-0.06
				c-0.03,0.22-0.06,0.44-0.09,0.66c0-0.02,0.01-0.04,0.01-0.05c-0.08,0.2-0.17,0.4-0.25,0.6c0.01-0.01,0.01-0.03,0.02-0.04
				c-0.13,0.17-0.26,0.34-0.39,0.51c0.01-0.02,0.03-0.03,0.04-0.04c-0.17,0.13-0.34,0.26-0.51,0.39c0.02-0.01,0.04-0.03,0.06-0.04
				c-0.2,0.08-0.4,0.17-0.6,0.25c0.03-0.01,0.07-0.02,0.1-0.03c-0.22,0.03-0.44,0.06-0.66,0.09c0.04-0.01,0.09-0.01,0.13,0
				c-0.22-0.03-0.44-0.06-0.66-0.09c0.04,0.01,0.08,0.02,0.12,0.03c-0.2-0.08-0.4-0.17-0.6-0.25c0.02,0.01,0.05,0.02,0.07,0.04
				c-0.17-0.13-0.34-0.26-0.51-0.39c0.02,0.01,0.03,0.03,0.04,0.04c-0.13-0.17-0.26-0.34-0.39-0.51c0.01,0.01,0.02,0.03,0.02,0.04
				c-0.08-0.2-0.17-0.4-0.25-0.6c0.01,0.02,0.01,0.03,0.01,0.05c-0.03-0.22-0.06-0.44-0.09-0.66c0,0.02,0,0.04,0,0.05
				c0.03-0.22,0.06-0.44,0.09-0.66c0,0.01,0,0.02-0.01,0.03c-0.1,0.33-0.12,0.66-0.04,1c0.02,0.33,0.11,0.64,0.3,0.93
				c0.16,0.29,0.37,0.53,0.64,0.7c0.24,0.22,0.52,0.37,0.85,0.45c0.22,0.03,0.44,0.06,0.66,0.09c0.45,0,0.87-0.12,1.26-0.34
				c0.17-0.13,0.34-0.26,0.51-0.39c0.31-0.31,0.52-0.68,0.64-1.1c0-0.01,0-0.02,0.01-0.03c0.01-0.08,0.08-0.59,0.09-0.67
				c0-0.01,0-0.01,0-0.01c0.01-0.24-0.05-0.48-0.09-0.71c0-0.01,0-0.01-0.01-0.02c-0.07-0.21-0.16-0.42-0.26-0.62
				c-0.09-0.19-0.47-0.61-0.41-0.55c-0.01-0.01-0.02-0.02-0.03-0.03c0,0-0.01-0.01-0.01-0.01c-0.07-0.06-0.44-0.34-0.51-0.39
				c-0.01-0.01-0.02-0.01-0.02-0.02c-0.01-0.01-0.03-0.02-0.04-0.02c0.02,0.01-0.43-0.21-0.64-0.27c-0.02,0-0.03-0.01-0.05-0.01
				c-0.24-0.04-0.48-0.08-0.72-0.1c-0.02,0-0.03,0-0.05,0c-0.24,0.01-0.49,0.06-0.72,0.09c-0.02,0-0.03,0.01-0.05,0.01
				c-0.21,0.06-0.68,0.29-0.64,0.27c-0.02,0.01-0.03,0.01-0.05,0.02c-0.19,0.12-0.37,0.26-0.54,0.42c-0.36,0.34-0.54,0.73-0.7,1.18
				c0,0.01-0.01,0.02-0.01,0.03c-0.04,0.23-0.08,0.46-0.09,0.69c0,0.01,0,0.02,0,0.03c0.01,0.23,0.05,0.47,0.09,0.7
				c0.08,0.33,0.23,0.61,0.45,0.85c0.18,0.27,0.41,0.49,0.7,0.64c0.29,0.18,0.6,0.28,0.93,0.3c0.33,0.07,0.66,0.06,1-0.04
				c0.2-0.08,0.4-0.17,0.6-0.25c0.38-0.22,0.67-0.52,0.9-0.9c0.08-0.2,0.17-0.4,0.25-0.6C374.26,420.29,374.26,419.85,374.14,419.4
				L374.14,419.4z"/>
		</g>
	</g>
</g>
</svg>
