<svg id="Layer_7" data-name="Layer 7" xmlns="http://www.w3.org/2000/svg" viewBox="0 0 520.51 605.87"><defs><style>.cls-1{fill:#4653a4;}.cls-2{fill:#63cae0;}.cls-3{fill:#4374ba;}.cls-4{fill:#332f3b;}.cls-5{fill:#4b58a2;}.cls-6{fill:#535daa;}</style></defs><path class="cls-1" d="M520.34,244.07c-.89-7.91-4.67-14.73-9.81-20.61-6.71-7.67-13.46-15.83-24.14-17.8a280.53,280.53,0,0,0-31.9-4c-7.64-.51-12.86-2.48-17.3-9.69-12.31-20-27.53-37.84-44.59-54.05a8.55,8.55,0,0,1-3.09-5.36c-3.09-23.94-7.69-47.53-16.75-70-6.62-16.47-15.15-31.79-28.07-44.22-6.26-6-13.1-11.36-21.81-13.56-.78,2.61,1.64,2.74,2.93,3.63,2,1.35,4.5,2,6.06,4.17-2.06,1.52-4.3,1.55-6.33,2.18a41.48,41.48,0,0,0-9.22,3.74c-1.8,1.1-2.57,2.36-.53,3.15l1-.58c3.77-2.21,5.83-.36,7.88,2.84,13.42,20.87,21.63,43.79,27.05,67.81.82,3.62,2.49,7.18,1.68,11.77-3.68-2.56-7-4.93-10.36-7.2a335.2,335.2,0,0,0-66.62-35c-1.64-.63-4.71,0-4.69-3.28l.84-1.19c-1.3-1.75-2.67-.9-3.93.5A269.71,269.71,0,0,0,250.11,81c-.91,1.27-1.94,3.16.5,4.1l.14-.22c2.21-3.44,4.83-3.72,8.73-2.32,35.94,12.93,68.13,32.21,97.28,56.74,2.84,2.39,3.09,5.12,2.4,9.06-4.32-3.18-8.18-6.19-12.2-9-30.85-21.45-65-32.09-102.68-31.66-2.42,0-5,.81-7.29-.61l.93-1.51-.25-.18c-4.13-1.86-4.81,2-6,4a505.32,505.32,0,0,0-28,57.27A732.2,732.2,0,0,0,168.4,276c-7,29.27-12.71,58.66-16.08,88.54-.51,4.46-.23,9.22-2.62,13.89-2.88-2.25-4.91-4.9-7.44-7-1.46-1.2-3.09-3-4.81-.23.77,4.47,4.78,6.14,7.67,8.74a337.18,337.18,0,0,0,90.73,58.23c28,12.27,57.17,20.12,87.63,22,30.92,1.94,61.06-2,89.74-17A133.51,133.51,0,0,1,375.28,468C345,481.07,313.35,484.19,281,480.49c-40.83-4.66-78.37-19-113.28-40.41a321.18,321.18,0,0,1-76.75-66.14c-29-34-50.12-72.21-59.86-116.25-6.11-27.65-6.89-55.37,0-83a140.29,140.29,0,0,1,19.15-43.36,56.9,56.9,0,0,0-2.68,8.36A167.15,167.15,0,0,0,42.61,189a210.25,210.25,0,0,0,12.65,62.32c15.94,44.29,41.89,82.16,75.35,115.05,1.51,1.49,2.85,3.33,5.27,3.47,2.93-2.16,0-3.4-.92-4.63-6-7.8-13.3-14.38-19.77-21.74-4.49-5.11-7.12-10-5.7-17.21,4.55-23.14,8.57-46.35,14.59-69.2,11.6-44,26.69-86.7,46.89-127.53,13.68-27.65,29.67-53.83,49.2-77.79,1.21-1.48,2.84-3,1.57-5.27-15.45-1.39-30.79-3-46.44-2C151.3,46,129,52.63,107.74,63.32c-16.94,8.5-31,20.48-43,35C47.52,119,34.06,141.72,26.15,167.46c-8.28,26.91-8.6,54.34-3.73,81.89a238.84,238.84,0,0,0,16.9,55.06c1.26,2.87,1.07,4.74-2.1,6.41a85.85,85.85,0,0,0-11.44,7.53C19.68,323,12.51,326.44,8,332.76,2.4,340.61,1,350,.05,359.4v5.05c2.31,15,9.66,22.6,24.16,25.2C35,391.59,45.84,392.28,56.73,393a338.23,338.23,0,0,0,36.86.12c6.3-.29,6.51-.75,6.44,5.65-.3,24.54-.06,49,2.78,73.49,2.66,22.87,7.07,45.36,15.22,66.91,7.57,20,17.38,38.75,34.67,52.49,20.93,16.65,43.46,17.89,66.35,7.9,21.77-9.5,38.77-25.24,54.22-43,17.05-19.57,30.92-41.24,43.38-63.86,2.11-3.83,4.55-5.14,8.41-5.31,10.44-.45,20.55-3,30.57-5.53,26.58-6.85,49.07-21.24,69.25-39.27a171.26,171.26,0,0,0,44.31-61.14A141.88,141.88,0,0,0,480.36,334c.76-12.92.67-25.87-1.69-38.68-.49-2.68.14-4.21,2.93-5.75,8.29-4.57,16.67-9.21,24.21-14.89C515.73,267.21,521.8,257.17,520.34,244.07Zm-217,205.35c-1.22,2.27-2.9,1-4.47.45,1.31-1.53,2.64-2.7,4.56-1.78.18.08.13,1-.07,1.33ZM83,95.58c31.46-21.41,66.54-28.72,103.92-27.23,4.76.19,9.64-.21,15.17,1.59-8.72,12.5-17.27,24.65-23.57,37.94-6.18,13-15.44,21.63-27.56,29.53C105.8,166.87,79.8,209.11,72.8,262.78c-.29,2.22.84,5.94-1.88,6.41-1.88.33-2.43-3.43-3.31-5.47C57.08,239.33,50.46,214,49.39,187.35c-.91-23,2.71-45.16,12.16-66.39A58.73,58.73,0,0,1,83,95.58ZM53.26,340.28c-2.58.3-5.18.39-8.67.64l9.61-5.77a6.54,6.54,0,0,1,2.13,3.7C56.42,340.73,54.42,340.14,53.26,340.28ZM282.19,491.1c-16.09,27.91-34.48,54.07-58.1,76.22a164.36,164.36,0,0,1-25.84,19.87c-4.52,2.79-7.89,2.21-11.76-1.72-9.2-9.33-14.54-20.88-18.39-33.07a350.79,350.79,0,0,1-15.25-81.28c-.76-10.75-1.09-21.48-1.09-33.19a332.16,332.16,0,0,0,49.43,27.45c25.16,11.1,51.25,18.8,78.65,21.77C282.93,487.49,284.11,487.77,282.19,491.1ZM456.5,240.63a78,78,0,0,0-7.55,3c-4.36,2.37-6.52,1-7-4C446.33,239.53,450.67,239.23,456.5,240.63Zm-35-1.93a37,37,0,0,0,4.47,0v.12h4.48a8.84,8.84,0,0,1,8.09,7.39c.17,1.57-.88,2-2,2.42-4.79,1.73-9.63,3.36-14.4,5.14-2.51.94-3.55.4-3.71-2.43a25.14,25.14,0,0,0-1.47-7.28c-1.76-4.7.14-5.89,4.51-5.36Zm-27.62-62.07a199.15,199.15,0,0,1,15.92,20.23c.49.69.86,1.49.23,2.26-.77.94-9.73.36-10.41-.81-3.82-6.53-8.75-12.8-5.77-21.68ZM440,412.87c-3.53,6.36-8.7,10.81-14.37,14.87-20.43,14.63-43.44,22.2-68.27,24.81a168.66,168.66,0,0,1-17.4,1c-2.63,0-3.74-.41-2.51-3.32,3.47-8.18,6.8-16.42,10.13-24.66a8.92,8.92,0,0,1,3.12-3.78q48.89-37.25,64.09-96.8a6.89,6.89,0,0,1,4.51-5.22q16.67-7,33.12-14.56c3.22-1.47,3.93-1.09,4.47,2.56a162.64,162.64,0,0,1,1.86,26.64c.44,29.23-5.6,54.67-18.78,78.46Z" transform="translate(-0.05 -0.01)"/><path class="cls-1" d="M147.41,378.27c-2.44-2.24-4.74-4.66-7.12-7-.86-.84-1.72-.91-2.42.25-1.48.09-2.16-.62-2.12-2.07-.7-4.44-4.45-6.87-7.15-9.67-6.91-7.16-13.29-14.77-19.93-22.16-3.24-3.59-.89-7.51-.33-10.81,3.54-20.8,7.1-41.62,12.43-62.08,9.87-37.85,21.37-75.13,37.51-110.88,12-26.48,24.81-52.44,41.31-76.43,6.37-9.26,12.54-18.68,20.14-27,1-1.06,1.35-2.62,2-3.94,9-9.83,18.32-19.36,29.67-26.59,8.17-5.08,16.3-10.28,25.3-13.81,15.21-6,30.61-6.84,46.16-1.24V4.77c1.78,2.65,5.12,2.82,7.37,4.66,1.35,1.1,4.06,1.49,3.79,3.43s-2.85,1.75-4.53,2.14a57.63,57.63,0,0,0-13,4.6c-1.69.84-1,1.22.31,1.46-.05,2.14-1.91,2.55-3.29,3.27-7.52,3.93-14.62,8.43-20.6,14.54a8.64,8.64,0,0,1-4.67,2.66c-2.41-.73-4.14,3.73-6.82.9a4.21,4.21,0,0,1,1.31-2.62c11.18-12,30.7-23.61,46.42-27.52-7.14-4.69-14.68-6.51-23-7.14-17.16-1.31-31.83,4.86-46,13.4-20.91,12.62-36.86,30.23-50.87,49.9-32.46,45.55-55,95.9-72.09,148.86a746.4,746.4,0,0,0-25.68,106.53c-.47,2.78-.51,5.62-1,8.41a5.29,5.29,0,0,0,1.23,4.62c11.1,13.52,23.49,25.81,36.09,37.9a1.79,1.79,0,0,0,1.26.37c1.41-5.35,1.66-11,2.38-16.46,2.85-21.91,6-43.77,11.17-65.28,3.45-14.38,6.74-28.81,10.63-43.06a670.18,670.18,0,0,1,25.34-75.06c10.27-25.29,21.83-49.93,35.86-73.38C246.53,81.73,261,63.33,276.2,45.53c1-1.15,2-2.23,3.74-2.12,2.33,1.56.2,2.73-.41,3.94-1.22,2.43-3.92,4-4.26,6.94-.71,1.67-1.12,3.64-3.53,3.68-.19-.71-.37-2.09-1.35-1-7,8.11-13.57,16.58-19.81,25.3-.6.83-1,1.78.16,2.57.95,1.1.52,2.22-.11,3.2-3.77,5.84-7.55,11.67-11.16,17.62a2.92,2.92,0,0,1-2.49,1.41c-.59-2.44-1.37-1.73-2.27-.16-2.46,4.31-5.1,8.54-7.41,12.93a607.17,607.17,0,0,0-36.36,83.39c-8.81,25.31-15.87,51.13-22.28,77.19-5.74,23.29-9.64,46.86-13.58,70.45-1.44,8.61-2.13,17.35-3.14,26" transform="translate(-0.05 -0.01)"/><path class="cls-1" d="M322.87,4.82c-5.5,0-10.45-2.62-16-2.92C288.34.9,272.25,7.45,257,17.09c-1.75,1.12-3.22,3-5.64,2.78,10.12-9,22.16-14.36,35.05-17.89A57,57,0,0,1,319,2.83C320.45,3.27,321.92,3.54,322.87,4.82Z" transform="translate(-0.05 -0.01)"/><path class="cls-2" d="M381.74,181c4.3,6.69,8.82,13.24,12.86,20.07,9.86,16.64,15.11,34.94,19,53.72.73,3.51-1.57,3.81-3.73,4.53C367.1,273.66,323.8,286.23,280.1,297.5c-37,9.53-74.2,17.93-111.58,25.64-3.06.63-5.3,1.19-4.36-3.62,13.4-68.71,33.21-135.22,66.39-197.3,3-5.67,6.62-7.19,12.39-7.24,41.42-.39,78.42,12,110.82,37.92,1.28,1,2.65,2,4,2.93A69.4,69.4,0,0,1,381.74,181Z" transform="translate(-0.05 -0.01)"/><path class="cls-3" d="M499.41,219.26a54.43,54.43,0,0,1,11.25,12.91c8.65,14.17,4.89,30.47-9.14,39.59-34.59,22.49-72.17,38.8-110.71,53C322.4,350,252,367.76,180,379.14c-6.06,1-12.17,1.67-18.26,2.46-5.12.66-7.47-1.82-7.11-7.08,1-13.94,3.35-27.68,5.32-41.49.4-2.79,1.75-3.94,4.37-4.45,65.27-12.77,129.69-29,193.42-47.93a1248.85,1248.85,0,0,0,118.63-41.37,105,105,0,0,0,12.89-6.48C494.31,229.92,498.47,226.15,499.41,219.26Z" transform="translate(-0.05 -0.01)"/><path class="cls-3" d="M135.8,369.47l2.12,2.07C185.32,416,240,446.62,304.8,456.84c35.46,5.58,70.3,3.08,103.41-12.37,2.65-1.24,5.27-2.59,8.27-4.06.24,2.43-1.51,3.12-2.58,4.1-22.81,20.91-50,32.41-80.34,36.64-51.6,7.19-99.77-4.61-145.38-28.09C128.8,422.51,83.08,377.71,51.9,318.68c-19-35.92-29.16-74.35-26.69-115.36,1.68-27.82,10-53.51,27.2-76-1.76,6.36-3.83,12.65-5.22,19.09-7.06,32.9-3.51,65.15,6.78,96.81C70,292.53,98.33,334,135.8,369.47Z" transform="translate(-0.05 -0.01)"/><path class="cls-2" d="M166.32,387.29a1106,1106,0,0,0,242.91-62.92A150.29,150.29,0,0,1,393.72,364c-23.41,41.58-58.19,68.76-104,82-4.31,1.24-8.18.17-12.07-.91-40.91-11.37-77.78-30.71-111.16-56.84C166.4,388.18,166.43,387.94,166.32,387.29Z" transform="translate(-0.05 -0.01)"/><path class="cls-3" d="M105.1,400.43c9.8,9.24,18.73,17.4,28.33,24.76a8.06,8.06,0,0,0,1.15.95c9.73,4.66,11.73,12.39,11.77,22.86a355.12,355.12,0,0,0,14.58,98.71c6,20.6,14.77,39.55,34.53,52.32a47.44,47.44,0,0,1-22.4-2.55c-14.61-5.07-25.19-15.22-33.78-27.63-13.46-19.46-20.62-41.51-25.77-64.32C105.8,471.4,104.8,436.74,105.1,400.43Z" transform="translate(-0.05 -0.01)"/><path class="cls-2" d="M163.32,135.92a664.51,664.51,0,0,0-35.45,93.73c-9.37,31.8-16.26,64.16-22.13,97.44-8.79-10.94-15.25-22.69-23-33.5-7.15-10-5.95-20.38-4.49-30.95C85.73,208.41,113,166.89,159.4,138,160.35,137.37,161.37,136.93,163.32,135.92Z" transform="translate(-0.05 -0.01)"/><path class="cls-4" d="M365.68,153.42a344.91,344.91,0,0,0-14.39-84.09c-5-16.55-11.61-32.47-21.21-47-1-1.54-3.53-3.45-1.79-4.91,2-1.64,5-2.57,7.78-.3A89.22,89.22,0,0,1,350,31.33c14.34,18.72,22.05,40.37,27.72,62.92,6.55,26.09,8.3,52.74,9.32,79.48,0,.92.6,2.09-.7,2.57s-1.83-.54-2.45-1.29c-1.16-1.4-2.25-2.86-3.37-4.29-3.78-3.64-7.43-7.41-11.22-11.05A11.31,11.31,0,0,1,365.68,153.42Z" transform="translate(-0.05 -0.01)"/><path class="cls-3" d="M91.71,387.29A390.67,390.67,0,0,1,48,387c-7.6-.49-15.14-1.78-22.72-2.59-12.23-1.3-19.12-8.32-20-20.64a26.17,26.17,0,0,1,.09-6c.54-3.43.6-7.29,2.31-10.08,2.35-3.83,6.13-.14,9.16.08,12.54.91,24.87-1,37.25-2.08,4.17-.37,6.89.1,9.4,4.1a260.29,260.29,0,0,0,26.06,34C90.37,384.68,91.61,385.41,91.71,387.29Z" transform="translate(-0.05 -0.01)"/><path class="cls-4" d="M312.73,489.12a326,326,0,0,1-21.28,35.63c-13.67,20-28.8,38.66-47.84,53.89A127.79,127.79,0,0,1,212.8,596.8a17.84,17.84,0,0,1-5.7,1.73c-3.44.15-7.27-1-8.48-4.07-1.27-3.26,3-3.15,4.86-4.33,14-8.89,26.17-19.86,37.32-32a332.79,332.79,0,0,0,45.34-63.52c2.26-4,4.67-6.12,9.64-5.57C301.12,489.57,306.6,489.12,312.73,489.12Z" transform="translate(-0.05 -0.01)"/><path class="cls-4" d="M419.45,204.83c17.6.22,35.17,1.1,52.57,3.77a41.92,41.92,0,0,1,18.31,7.26c4.11,3,4.38,5.6.46,8.84-9,7.42-18.71,11.5-31.05,9.82a221.74,221.74,0,0,0-40.23-1.65c-4.13.2-5.9-1.21-6.92-5.07a92.21,92.21,0,0,0-7-18.07c-1.75-3.49-2-5.41,2.92-5C412.12,205.09,415.8,204.83,419.45,204.83Z" transform="translate(-0.05 -0.01)"/><path class="cls-4" d="M358.48,133.17c-6.4-4.87-11.72-9-17.16-13a304.09,304.09,0,0,0-79.45-42.49c-3.49-1.24-4.13-2.08-1.7-5.25,7.14-9.27,7-9.3,17.77-5.08,26.27,10.28,50.47,24.25,73.25,40.79,2.78,2,4.8,4.2,5.05,8C356.6,121.36,357.58,126.58,358.48,133.17Z" transform="translate(-0.05 -0.01)"/><path class="cls-4" d="M90.8,83.66c.79-3,2.79-4,4.38-5.28,23.76-18.43,51-26.92,80.76-28.76a233,233,0,0,1,36.31,1c3.68.34,4.19,1.32,1.75,4-4.09,4.43-6,10.21-15,9-26.59-3.47-52.93-.6-78.6,7.49a155.12,155.12,0,0,0-26,11C93.38,82.66,92.34,83,90.8,83.66Z" transform="translate(-0.05 -0.01)"/><path class="cls-4" d="M450.72,402.25a148.39,148.39,0,0,0,8.73-25.36c5.67-23.11,6.09-46.4,2.39-69.75-.74-4.72.21-6.85,4.44-8.74,7.48-3.35,7.56-3.62,8.47,4.71,3.7,33.85-1.88,65.79-20,95.08a42,42,0,0,1-2.58,3.64C452.07,402,451.63,402,450.72,402.25Z" transform="translate(-0.05 -0.01)"/><path class="cls-4" d="M436.9,199.53H420.05c-1.77,0-2.56-1.25-3.43-2.5a251.78,251.78,0,0,0-21.17-27,11.62,11.62,0,0,1-3.2-9c.24-5.57-1.62-11.1-.48-17.75A315,315,0,0,1,436.9,199.53Z" transform="translate(-0.05 -0.01)"/><path class="cls-4" d="M22.93,342.38a32.37,32.37,0,0,1-9.35-1c-3.93-1-4.51-2.85-1.87-5.95,3.58-4.22,8.29-7.07,12.79-10.15,5-3.44,10.16-6.78,15.14-10.31,2-1.46,3.27-1.66,4.46,1,1.7,3.74,3.7,7.41,5.7,11,1.34,2.31.69,3.38-1.47,4.59-5,2.85-10,5.88-14.86,9C30.34,342.55,26.9,342.39,22.93,342.38Z" transform="translate(-0.05 -0.01)"/><path class="cls-4" d="M326.56,453.37c-4.07-.34-7.86-.61-11.64-1-2-.2-5.05.32-5.42-2a6.45,6.45,0,0,1,3.16-6.3c8.07-3.82,16.07-7.76,23.84-12.19,2.49-1.42,2.49.8,2,2.17-2.33,6-4.83,12-7.36,17.88C330.13,454.21,328,453.1,326.56,453.37Z" transform="translate(-0.05 -0.01)"/><path class="cls-5" d="M365.68,153.42c3.08,4.69,7.71,8,11.24,12.23,1.31,1.6,3.31,2.75,3.61,5.08-.73.16-3-2.57-1.93.94.76,2.49,1.88,4.87,2.84,7.3a170.09,170.09,0,0,0-24-25.17,7.21,7.21,0,0,1,5.56,1.55C365.4,157.13,365.64,155.28,365.68,153.42Z" transform="translate(-0.05 -0.01)"/><path class="cls-1" d="M280.72,43.94c-4.4,1-5.75,5.29-8.3,8.12-12.62,14-23.28,29.64-34,45.11a132.56,132.56,0,0,0-8.23,14.12c-8.44,16.19-17.06,32.3-24.08,49.18C201,172.7,196,185,191.54,197.47c-4.84,13.4-9.58,26.88-13.45,40.59-7.13,25.26-13.72,50.7-18.55,76.52-2.72,14.57-5.35,29.21-6.66,44-.51,5.75-1.9,11.4-1.95,17.21,0,.82,0,1.93-1,2a3.21,3.21,0,0,1-2.07-1.08q-17.12-17.07-33.75-34.6c-5.6-5.92-5.07-12-4-18.61a756,756,0,0,1,34.54-132.37,579.1,579.1,0,0,1,41.73-89.72,370.35,370.35,0,0,1,31.68-46.9C231.27,37.9,246.9,24,265.74,13.75,276,8.17,286.67,4,298.09,3.54c11.7-.49,23.6.61,33.68,9.22-20.35,4-35.71,16.31-50.14,30.13A1.19,1.19,0,0,1,280.72,43.94Z" transform="translate(-0.05 -0.01)"/><path class="cls-6" d="M280.72,43.94l1-1c2.5.72,3.09-3.89,6-2.14-3.72,5-8.8,8.65-13.08,13.09-1.47-3.19,2.25-3.63,3.08-5.66C278.31,46.64,279.67,45.35,280.72,43.94Z" transform="translate(-0.05 -0.01)"/><path class="cls-3" d="M148.67,373.35C137.8,364.05,128.8,353.56,119,344c-7-6.81-7.63-14-5.94-22.69,6.08-31.32,12.57-62.54,21.9-93.1,16.66-54.57,38.33-106.85,71.35-153.8,13.91-19.79,29.39-38.21,49.41-52.27,12.54-8.8,26-15.38,41.55-16.7,10.13-.87,19.7,1.22,29.33,5.92C299,21,279.24,39.79,261.8,61.2c-33.23,40.62-55,87.48-72.9,136.32-9.39,25.58-16.46,51.83-23.13,78.24-6.87,27.17-11.31,54.74-15.62,82.36C149.4,363,149.19,367.89,148.67,373.35Z" transform="translate(-0.05 -0.01)"/><path class="cls-1" d="M320.41,16.67v1.66a1.84,1.84,0,0,0,.22,1,1.87,1.87,0,0,0,.51.81,2,2,0,0,0,.81.52,1.92,1.92,0,0,0,1,.21l.67-.09a2.5,2.5,0,0,0,1.1-.64l.39-.51a2.43,2.43,0,0,0,.34-1.26V16.71a1.92,1.92,0,0,0-.21-1,2,2,0,0,0-.52-.81,1.87,1.87,0,0,0-.81-.51,1.84,1.84,0,0,0-1-.22l-.66.09a2.44,2.44,0,0,0-1.11.64l-.39.51a2.53,2.53,0,0,0-.34,1.26Z" transform="translate(-0.05 -0.01)"/><path class="cls-1" d="M320.4,16l-.93,3.13,1.74-1.74a40.89,40.89,0,0,0-12,3.81,2.53,2.53,0,0,0-.9,3.42,2.58,2.58,0,0,0,3.42.9c.48-.24.95-.46,1.43-.68l.24-.1.63-.26c.91-.36,1.83-.68,2.77-1a38.63,38.63,0,0,1,5.73-1.3,2.46,2.46,0,0,0,1.75-1.75l.93-3.14a2.51,2.51,0,0,0-1.74-3.07A2.55,2.55,0,0,0,320.4,16Z" transform="translate(-0.05 -0.01)"/><path class="cls-1" d="M287.08,35.6a453.37,453.37,0,0,0-30.69,34.86,2.57,2.57,0,0,0,0,3.54,2.54,2.54,0,0,0,3.54,0,449.38,449.38,0,0,1,30.69-34.86C292.87,36.83,289.34,33.3,287.08,35.6Z" transform="translate(-0.05 -0.01)"/><path class="cls-1" d="M257.57,67.59,237,99.21c-1.77,2.7,2.56,5.21,4.31,2.52l20.61-31.61c1.76-2.71-2.57-5.22-4.32-2.53Z" transform="translate(-0.05 -0.01)"/></svg>