<svg xmlns="http://www.w3.org/2000/svg" viewBox="0 0 415.08 336.74"><defs><style>.cls-1{fill:#97d5cf;stroke-miterlimit:10;}.cls-1,.cls-2{stroke:#12b097;}.cls-1,.cls-2,.cls-3{stroke-width:6px;}.cls-2,.cls-9{fill:#10b097;}.cls-2{stroke-linejoin:bevel;}.cls-3,.cls-5{fill:none;}.cls-3{stroke:#367569;stroke-linecap:round;stroke-linejoin:round;}.cls-4{fill:#eac665;}.cls-6{fill:#202020;}.cls-7{fill:#357569;}.cls-8{fill:#306058;}.cls-10{fill:#fffbea;}.cls-11{fill:#eff8f8;}</style></defs><g id="Layer_1" data-name="Layer 1"><path class="cls-1" d="M443.55,282.25v235A26.59,26.59,0,0,1,417,543.86H225.55A26.59,26.59,0,0,1,199,517.27V239.71a26.59,26.59,0,0,1,26.59-26.59H378.68" transform="translate(-170.17 -210.12)"/><path class="cls-2" d="M443.55,282.25H395A16.26,16.26,0,0,1,378.68,266V213.12l28.13,30,11.06,11.78Z" transform="translate(-170.17 -210.12)"/><line class="cls-3" x1="141" y1="65.05" x2="66.11" y2="65.05"/><line class="cls-3" x1="66.11" y1="101.6" x2="240.94" y2="101.6"/><line class="cls-3" x1="66.11" y1="141.72" x2="240.94" y2="141.72"/><line class="cls-3" x1="66.11" y1="177.38" x2="240.94" y2="177.38"/><line class="cls-3" x1="66.11" y1="217.5" x2="240.94" y2="217.5"/><line class="cls-3" x1="66.11" y1="257.62" x2="240.94" y2="257.62"/><line class="cls-3" x1="66.11" y1="297.74" x2="240.94" y2="297.74"/><path class="cls-4" d="M571,352l-23.39,7.88a2.8,2.8,0,0,0-1.76,1.76l-8.76,25.84a2.81,2.81,0,0,1-3,1.89l-51.72-6.1a5.85,5.85,0,0,0-6.7,4.87l-2.16,112.42a5.86,5.86,0,0,0,5.38,6.29l62.68,7.39a5.87,5.87,0,0,0,6.7-4.87l24-109.84a5.85,5.85,0,0,0-5.39-6.28h0l-21-2.47a2.81,2.81,0,0,1-2.34-3.69l7.21-21.39a2.83,2.83,0,0,1,1.79-1.78l20.14-6.59A2.81,2.81,0,1,0,571,352Zm-7.81,46.46a2.81,2.81,0,0,1,2.42,3.39L542.75,506.16a2.82,2.82,0,0,1-3.08,2.19l-57.59-6.79a2.82,2.82,0,0,1-2.49-2.85l2.06-106.77a2.82,2.82,0,0,1,3.14-2.74L531,394.65a2.81,2.81,0,0,1,2.33,3.73l-9.57,27.11a2.83,2.83,0,0,1-3,1.86l-30.83-3.64a2.82,2.82,0,0,0-3.15,2.73l-1.57,67.26a2.81,2.81,0,0,0,2.48,2.86l47.77,5.64a2.8,2.8,0,0,0,3.07-2.21l14.12-65.79a2.81,2.81,0,0,0-2.42-3.38l-21.08-2.49,10.72-30.42a2.82,2.82,0,0,1,3-1.86Z" transform="translate(-170.17 -210.12)"/><path class="cls-5" d="M565.59,401.84,542.75,506.16a2.82,2.82,0,0,1-3.08,2.19l-57.59-6.79a2.82,2.82,0,0,1-2.49-2.85l2.06-106.77a2.82,2.82,0,0,1,3.14-2.74L531,394.65a2.81,2.81,0,0,1,2.33,3.73l-9.57,27.11a2.83,2.83,0,0,1-3,1.86l-30.83-3.64a2.82,2.82,0,0,0-3.15,2.73l-1.57,67.26a2.81,2.81,0,0,0,2.48,2.86l47.77,5.64a2.8,2.8,0,0,0,3.07-2.21l14.12-65.79a2.81,2.81,0,0,0-2.42-3.38l-21.08-2.49,10.72-30.42a2.82,2.82,0,0,1,3-1.86l20.35,2.4A2.81,2.81,0,0,1,565.59,401.84Z" transform="translate(-170.17 -210.12)"/><g id="Layer_7" data-name="Layer 7"><ellipse class="cls-1" cx="311.34" cy="222.11" rx="19.29" ry="16.6"/><ellipse class="cls-1" cx="392.69" cy="209.28" rx="19.39" ry="15.29"/><ellipse class="cls-1" cx="383.86" cy="239.86" rx="19.39" ry="15.29"/><ellipse class="cls-1" cx="373.29" cy="270.43" rx="19.39" ry="15.29"/></g></g><g id="Layer_4" data-name="Layer 4"><path class="cls-6" d="M175.74,325.52a9,9,0,0,1,8.51-8.4,10.93,10.93,0,0,1-3.88,6,18.8,18.8,0,0,1,5.17-2.62.46.46,0,1,1-.08.48" transform="translate(-170.17 -210.12)"/><path class="cls-6" d="M296,326.73l14.57,4.62a3.5,3.5,0,0,1,2.1,1.28c.69,1.16-.14,2.63-1.11,3.57a11.72,11.72,0,0,1-5.21,2.91,1.14,1.14,0,0,1-.94-.05,1.19,1.19,0,0,1-.39-.75,31.18,31.18,0,0,1-.78-5.61" transform="translate(-170.17 -210.12)"/><path class="cls-6" d="M349.72,329.71l-5.39,6.16a3.61,3.61,0,0,1-1.54,1.21,1.25,1.25,0,0,1-1.6-.75,1.64,1.64,0,0,1,.18-.94c1.38-3.18,4.81-4.87,8-6.3" transform="translate(-170.17 -210.12)"/><path class="cls-6" d="M462.93,320.26c2.26.7,4.84,1.71,5.52,4s-.88,4.52-2.46,6.27q.43-5.21.75-10.41" transform="translate(-170.17 -210.12)"/><path class="cls-6" d="M461.31,322.11a4.44,4.44,0,0,1,.27-2.67c2.19,2,5.34,3.27,6.21,6.09a6.32,6.32,0,0,1-1.33,5.57,18.68,18.68,0,0,1-4.52,3.82" transform="translate(-170.17 -210.12)"/><path class="cls-6" d="M183.24,322.78c.32-.15-.2.11-.24.1a.71.71,0,0,0,.24-.06c-.34.21-.56,0-.23,0a1.13,1.13,0,0,0,.26,0c.23,0-.51-.13-.29,0a1.83,1.83,0,0,0,.25.06c.25.06.27.23-.18-.09l.24.11.22.14c.29.15-.14-.09-.19-.16a2.33,2.33,0,0,0,.42.41c.18.14-.24-.4-.15-.19a1,1,0,0,0,.14.22c0,.08.18.39,0,0s0,0,0,.07c.11.3,0-.17,0-.26,0,.1,0,.2,0,.29a1.53,1.53,0,0,0,0,.3c0-.09.12-.58,0-.24,0,.12,0,.24-.09.36s-.16.4,0,0-.11.19-.18.29-.32.32.09-.08a2.11,2.11,0,0,0-.19.23,4.27,4.27,0,0,0-.44.41,1.13,1.13,0,1,0,.15-.12l-.32.19-.27.14c-.26.14.6-.23.12-.06l2.82,1.15c-.14-.24-.12-.18,0,.17q-.11-.39,0,.21a3.69,3.69,0,0,0,0-.47c-.05.39-.05.45,0,.17,0-.08,0-.16.07-.24s.1-.49.2-.56l-.06.14.09-.19.33-.74.54-1.2,2.29-5.09a2.55,2.55,0,0,0-.64-3.23,2.51,2.51,0,0,0-3.28.2l-7.21,7.06a2.5,2.5,0,0,0-.19,3.28,2.35,2.35,0,0,0,1.29.89,2.93,2.93,0,0,0,1.93-.25l9.09-3.87a2.51,2.51,0,0,0-.6-4.57,3,3,0,0,0-1.93.25l-9.08,3.87,3,3.93,7.2-7.05-3.92-3L182,321.53c-1,2.19-2.34,4.7-.88,7A2.56,2.56,0,0,0,184,329.7c3.09-1.06,5.61-4.39,4.57-7.76a5.84,5.84,0,0,0-2.84-3.42,5.41,5.41,0,0,0-5,0,2.51,2.51,0,0,0-.89,3.42,2.56,2.56,0,0,0,3.42.89Z" transform="translate(-170.17 -210.12)"/><path class="cls-6" d="M299.16,333.48a37,37,0,0,0,6.9,6.38,2.48,2.48,0,0,0,3.42-.89,2.51,2.51,0,0,0,.25-1.93,2.86,2.86,0,0,0-1.14-1.49c-.31-.23-.62-.45-.92-.69l.51.4a35.36,35.36,0,0,1-5.49-5.31,2.51,2.51,0,0,0-4.27,1.77,2.79,2.79,0,0,0,.74,1.76Z" transform="translate(-170.17 -210.12)"/><path class="cls-6" d="M461,320.78l2.4,1.49c.68.42,1.37.82,2,1.3l-.51-.39a5.51,5.51,0,0,1,.95.92l-.39-.51a4.11,4.11,0,0,1,.43.73l-.26-.59a2.19,2.19,0,0,1,.14.5l-.09-.66a3.27,3.27,0,0,1,0,.7l.09-.67a2.83,2.83,0,0,1-.15.59l.25-.6a2.38,2.38,0,0,1-.25.44l.4-.5a2.57,2.57,0,0,1-.28.29l.5-.39a2,2,0,0,1-.35.21l.6-.25-.24.07a2.5,2.5,0,1,0,1.33,4.82c3.05-.77,3.93-4.72,2.25-7.13a10.12,10.12,0,0,0-3-2.65l-3.29-2a2.5,2.5,0,0,0-2.53,4.32Z" transform="translate(-170.17 -210.12)"/><path class="cls-6" d="M462.89,322a99.55,99.55,0,0,1-.27,13.15,2.51,2.51,0,0,0,2.5,2.5,2.57,2.57,0,0,0,2.5-2.5,99.55,99.55,0,0,0,.27-13.15,2.5,2.5,0,1,0-5,0Z" transform="translate(-170.17 -210.12)"/><path class="cls-6" d="M343.39,339.49a12.57,12.57,0,0,1,.35-1.5c.08-.27.17-.54.26-.8l.14-.36c0-.09.18-.53.05-.13s0,0,.06-.12.11-.24.16-.35l.36-.68a15.74,15.74,0,0,1,.87-1.36c.07-.11.15-.21.23-.32s-.4.49-.06.09c.16-.2.32-.4.5-.59a13.88,13.88,0,0,1,1.08-1.09c.19-.17.38-.34.58-.5l.18-.15c.15-.11.08-.06-.2.16.09,0,.24-.17.31-.23a14.87,14.87,0,0,1,1.37-.85,2.52,2.52,0,0,0,.9-3.42,2.55,2.55,0,0,0-3.42-.9,17.38,17.38,0,0,0-8.55,11.77,2.5,2.5,0,0,0,4.83,1.33Z" transform="translate(-170.17 -210.12)"/></g><g id="Layer_3" data-name="Layer 3"><path class="cls-7" d="M334.47,314.48a14.14,14.14,0,0,1-2.52,1.45" transform="translate(-170.17 -210.12)"/><path class="cls-7" d="M323.7,317.67a22,22,0,0,1-8.09-1.67" transform="translate(-170.17 -210.12)"/><line class="cls-7" x1="11.5" y1="123.97" x2="6.8" y2="123.97"/><path class="cls-8" d="M474.72,308.6c-12.61-3.49-71.21-17.29-139.52,5.79a2.61,2.61,0,0,0-.54.24c-.93.5-1.83.93-2.71,1.3l-.15.06a20.4,20.4,0,0,1-16.19,0h0a28.27,28.27,0,0,1-2.86-1.36,2.87,2.87,0,0,0-.54-.24c-68.31-23.08-126.91-9.28-139.52-5.79a3.43,3.43,0,0,0-2.51,3.3v18.76a3.44,3.44,0,0,0,3.43,3.43h0A3.41,3.41,0,0,1,177,337.4c.5,15,6.17,75.75,65.71,70.87,40.4-4.31,53.49-21.39,65.19-55.6a3.37,3.37,0,0,1,.8-1.3c2.88-2.92,16.42-15,30.07.07a3.4,3.4,0,0,1,.7,1.19c11.71,34.24,24.78,51.33,65.19,55.64,59.55,4.88,65.22-55.86,65.71-70.87a3.42,3.42,0,0,1,3.42-3.31h0a3.43,3.43,0,0,0,3.42-3.43V311.9A3.42,3.42,0,0,0,474.72,308.6ZM239.47,403.94c-58.58-1.12-58.3-67.64-57.68-80.7a3.4,3.4,0,0,1,2.16-3c76.86-30.09,114.05,6,120.18,12.78a3.35,3.35,0,0,1,.87,2.45C304.51,345.33,299.07,405.07,239.47,403.94Zm168.46,0c-59.6,1.13-65-58.61-65.53-68.48a3.35,3.35,0,0,1,.87-2.45c6.13-6.81,43.32-42.87,120.18-12.78a3.4,3.4,0,0,1,2.16,3C466.23,336.3,466.51,402.82,407.93,403.94Z" transform="translate(-170.17 -210.12)"/><path class="cls-9" d="M407.93,403.94c-54.83,1-63.82-49.43-65.3-65.21a10,10,0,0,1,3-8.15c10.44-10,46.23-36.64,113.49-12a10,10,0,0,1,6.61,9.36C465.81,347.69,461.26,402.92,407.93,403.94Z" transform="translate(-170.17 -210.12)"/><path class="cls-9" d="M302.41,331.21a8.45,8.45,0,0,1,2.43,6.68c-1.23,14.72-9.52,67.11-65.37,66.05-54.45-1-58.05-58.58-57.79-77.18a8.37,8.37,0,0,1,5.44-7.74C256.59,293.09,292.8,321.67,302.41,331.21Z" transform="translate(-170.17 -210.12)"/><path class="cls-7" d="M315.6,316a13.44,13.44,0,0,1-2.67-1.51" transform="translate(-170.17 -210.12)"/><path class="cls-7" d="M331.8,316a21.74,21.74,0,0,1-8.1,1.68" transform="translate(-170.17 -210.12)"/><line class="cls-7" x1="300.25" y1="123.97" x2="295.55" y2="123.97"/></g><g id="Layer_6" data-name="Layer 6"><path class="cls-10" d="M484.94,468.91a161.08,161.08,0,0,0,.2,17.44,2.57,2.57,0,0,0,2.5,2.5,2.53,2.53,0,0,0,2.5-2.5,161.08,161.08,0,0,1-.2-17.44,2.5,2.5,0,0,0-5,0Z" transform="translate(-170.17 -210.12)"/><path class="cls-10" d="M487.38,455.45h-.64a1.89,1.89,0,0,0-1,.21,1.82,1.82,0,0,0-.8.52,1.77,1.77,0,0,0-.52.8,1.89,1.89,0,0,0-.21,1l.09.66a2.41,2.41,0,0,0,.64,1.1l.5.39a2.58,2.58,0,0,0,1.27.35h.64a2.45,2.45,0,0,0,2.29-1.54,2,2,0,0,0,.21-1l-.09-.67a2.5,2.5,0,0,0-.64-1.1l-.51-.39a2.43,2.43,0,0,0-1.26-.34Z" transform="translate(-170.17 -210.12)"/><path class="cls-11" d="M190,351.56a42.15,42.15,0,0,0,11.42,24.16c2.23,2.32,5.77-1.22,3.53-3.54A36.53,36.53,0,0,1,195,351.56a2.57,2.57,0,0,0-2.5-2.5,2.53,2.53,0,0,0-2.5,2.5Z" transform="translate(-170.17 -210.12)"/><path class="cls-11" d="M190.74,339.85c3.21,0,3.22-5,0-5s-3.23,5,0,5Z" transform="translate(-170.17 -210.12)"/><path class="cls-11" d="M349.78,341.23a67.39,67.39,0,0,0,9.86,31.08c1.69,2.73,6,.22,4.32-2.53a61.89,61.89,0,0,1-9.18-28.55,2.5,2.5,0,0,0-5,0Z" transform="translate(-170.17 -210.12)"/></g></svg>