<svg id="Layer_1" data-name="Layer 1" xmlns="http://www.w3.org/2000/svg" viewBox="0 0 211.5 402.77"><defs><style>.cls-1{fill:#12b097;stroke:#0e7e87;}.cls-1,.cls-2,.cls-4,.cls-5,.cls-6,.cls-7,.cls-8{stroke-miterlimit:10;stroke-width:4px;}.cls-2{fill:#fff;}.cls-2,.cls-4,.cls-5,.cls-6{stroke:#231f20;}.cls-3,.cls-6,.cls-8{fill:#fde1d2;}.cls-4{fill:none;}.cls-5{fill:#b68651;}.cls-7{fill:#6cc6ad;}.cls-7,.cls-8{stroke:#107e87;}.cls-9{fill:#fbb35b;}.cls-10{fill:#fff6ee;}.cls-11{fill:#8ccfb8;}</style></defs><path class="cls-1" d="M231.9,271.25V412.33a2.83,2.83,0,0,1-3,2.64H27.4a2.83,2.83,0,0,1-3-2.64V271.25c0-30.9,24.5-56.76,57.34-63.39,8.17,15,25.88,25.4,46.41,25.4s38.24-10.39,46.41-25.4a77.07,77.07,0,0,1,35.67,17.39C223.62,237,231.9,253.28,231.9,271.25Z" transform="translate(-22.4 -14.2)"/><path class="cls-2" d="M162.84,98.91" transform="translate(-22.4 -14.2)"/><path class="cls-3" d="M114.23,112.75q-3.35-4.41-6.47-9" transform="translate(-22.4 -14.2)"/><path class="cls-3" d="M122.86,107.7q-3.33-4.41-6.46-9a11.2,11.2,0,0,0-6-4.6,7.53,7.53,0,0,0-4-.18,7.4,7.4,0,0,0-3.71,1.19l-2,1.56a10.05,10.05,0,0,0-2.57,4.41l-.36,2.66a10,10,0,0,0,1.37,5q3.12,4.56,6.46,9a7.56,7.56,0,0,0,2.58,2.8,9,9,0,0,0,7.39,2,7.3,7.3,0,0,0,3.71-1.19l2-1.56a10,10,0,0,0,2.57-4.41l.36-2.66a10,10,0,0,0-1.37-5Z" transform="translate(-22.4 -14.2)"/><path class="cls-4" d="M111.12,106.51l-.16.13h0Z" transform="translate(-22.4 -14.2)"/><path class="cls-5" d="M205.49,121.36a20.94,20.94,0,0,1-3,10.87c0,.32,0,.65,0,1A34.32,34.32,0,0,1,180,165.42a68.22,68.22,0,0,0,16.59-40.78c.09-1.36.13-2.72.13-4.1s0-2.6-.11-3.88c0-1-.13-2-.23-3-.05-.53-.11-1.05-.18-1.58l-1.09-.14a69.31,69.31,0,0,1-18.52-5.11c-1.33-.57-2.63-1.18-3.91-1.83A37.48,37.48,0,0,1,154,112.34a38.77,38.77,0,0,1-3.91.2,36.21,36.21,0,0,1-5.24-.37,30.78,30.78,0,0,1-3.21-.59,37.69,37.69,0,0,1-21-13.26q.27-1.16.45-2.34c-.34.52-.7,1-1.07,1.54a38.39,38.39,0,0,1-2.48,3.08c-.25.3-.52.59-.79.88s-.73.77-1.11,1.14-.61.6-.92.9l-.11.1c-.38.35-.78.71-1.18,1s-.67.57-1,.84a144,144,0,0,1-1,.84l0,0-.06,0-.09.07,0,0-.17.12-1.19-1.14-4.89-4.69,4.71,7.63,1.08,1.75a28.89,28.89,0,0,1-4.3-.56c-.45-.09-.9-.19-1.34-.3A30.07,30.07,0,0,1,88.56,98.47a28.14,28.14,0,0,1-1,2.71,30.34,30.34,0,0,1-10.3,13.08c-.36.26-.72.51-1.1.75a25.43,25.43,0,0,1-2.47,1.46A30,30,0,0,1,59.57,120c0,.18,0,.37,0,.55a72.21,72.21,0,0,0,.4,7.54c.1.81.2,1.61.32,2.41.28,1.92.63,3.81,1.07,5.67A68.23,68.23,0,0,0,76.77,166c-9.33,1-19.5-5.37-24.62-16.19a30.18,30.18,0,0,1-2.82-16.66,19.27,19.27,0,0,1-6.84-9.86,21.17,21.17,0,0,1-1-6.33,20.75,20.75,0,0,1,.48-4.5,43.29,43.29,0,0,1,2-50.06,42.65,42.65,0,0,1,49.3-31.86,49.42,49.42,0,0,1,75.47,7,52.34,52.34,0,0,1,35.41,76.61A21.21,21.21,0,0,1,205.49,121.36Z" transform="translate(-22.4 -14.2)"/><path class="cls-4" d="M111.82,106a6,6,0,0,1-.5.38" transform="translate(-22.4 -14.2)"/><path class="cls-4" d="M107,101.94" transform="translate(-22.4 -14.2)"/><path class="cls-4" d="M110.66,110.18h0a.14.14,0,0,0,.09,0" transform="translate(-22.4 -14.2)"/><path class="cls-6" d="M109.76,105.49l1.19,1.14h0l.16-.13,0,0,.09-.07.06,0,0,0a144,144,0,0,0,1-.84c.34-.26.68-.54,1-.84s.8-.7,1.18-1l.11-.1c.31-.29.63-.59.92-.9s.75-.75,1.11-1.14.54-.58.79-.88A38.39,38.39,0,0,0,120,97.52c.19.27.4.54.62.8a37.69,37.69,0,0,0,21,13.26,30.78,30.78,0,0,0,3.21.59,36.21,36.21,0,0,0,5.24.37,38.77,38.77,0,0,0,3.91-.2A37.48,37.48,0,0,0,172.7,105c1.28.65,2.58,1.26,3.91,1.83a69.31,69.31,0,0,0,18.52,5.11l1.09.14c.07.53.13,1.05.18,1.58.1,1,.18,2,.23,3,.07,1.28.11,2.58.11,3.88s0,2.74-.13,4.1A68.22,68.22,0,0,1,180,165.42h0a69.76,69.76,0,0,1-12.58,11.36A68,68,0,0,1,137,188.58a69.65,69.65,0,0,1-17.31,0,68.26,68.26,0,0,1-38.16-17.79q-1.8-1.65-3.46-3.44c-.43-.46-.86-.94-1.28-1.41a68.23,68.23,0,0,1-15.42-29.82c-.44-1.86-.79-3.75-1.07-5.67-.12-.8-.22-1.6-.32-2.41a72.21,72.21,0,0,1-.4-7.54c0-.18,0-.37,0-.55a30,30,0,0,0,14.15-3.52A25.43,25.43,0,0,0,76.19,115c.38-.24.74-.49,1.1-.75a30.34,30.34,0,0,0,10.3-13.08,28.14,28.14,0,0,0,1-2.71A30.07,30.07,0,0,0,105,109.32c.44.11.89.21,1.34.3a28.89,28.89,0,0,0,4.3.56" transform="translate(-22.4 -14.2)"/><path class="cls-2" d="M111.12,110.18" transform="translate(-22.4 -14.2)"/><path class="cls-7" d="M174.56,207.86c-8.17,15-25.88,25.4-46.41,25.4s-38.24-10.39-46.41-25.4a82.68,82.68,0,0,1,11.59-1.51c7.22,10.14,20.22,16.91,35.06,16.91s27.82-6.75,35.05-16.88A82.22,82.22,0,0,1,174.56,207.86Z" transform="translate(-22.4 -14.2)"/><path class="cls-8" d="M163.44,206.38c-7.23,10.13-20.22,16.88-35.05,16.88s-27.84-6.77-35.06-16.91q2.51-.15,5.07-.15h59.5C159.77,206.2,161.61,206.26,163.44,206.38Z" transform="translate(-22.4 -14.2)"/><path class="cls-9" d="M55.49,56.27c3.22,0,3.23-5,0-5s-3.22,5,0,5Z" transform="translate(-22.4 -14.2)"/><path class="cls-9" d="M64.65,48a21.64,21.64,0,0,1,21.13-7c3.13.75,4.47-4.07,1.33-4.82a26.64,26.64,0,0,0-26,8.25,2.55,2.55,0,0,0,0,3.53,2.51,2.51,0,0,0,3.53,0Z" transform="translate(-22.4 -14.2)"/><path class="cls-10" d="M81.48,161.34a64,64,0,0,0,14.68,11.3,2.5,2.5,0,1,0,2.52-4.31c-1.27-.71-2.51-1.47-3.73-2.26s-2.59-1.78-3.5-2.48l-.24-.19-.39-.31-.87-.71c-.58-.48-1.14-1-1.7-1.46q-1.68-1.5-3.24-3.12a2.5,2.5,0,1,0-3.53,3.54Z" transform="translate(-22.4 -14.2)"/><path class="cls-10" d="M68.33,141.26a66.11,66.11,0,0,0,3.61,7.43,2.5,2.5,0,1,0,4.32-2.52,61,61,0,0,1-3.21-6.48l.25.6-.15-.36A2.79,2.79,0,0,0,72,138.44a2.5,2.5,0,0,0-3.42.9,2.41,2.41,0,0,0-.25,1.92Z" transform="translate(-22.4 -14.2)"/><path class="cls-11" d="M59.42,223.39a23.44,23.44,0,0,0-14.28,11.85,2.5,2.5,0,1,0,4.32,2.53,20.8,20.8,0,0,1,1-1.85c.17-.27.35-.54.54-.8l.33-.47c.28-.39-.17.2,0,0a23.86,23.86,0,0,1,2.89-3l.37-.31c.21-.17.29-.22,0,0,.28-.21.56-.42.86-.62.56-.38,1.13-.73,1.72-1.06.31-.16.63-.33,1-.48l.43-.2.11-.06a10.16,10.16,0,0,1,2-.69,2.5,2.5,0,0,0-1.33-4.82Z" transform="translate(-22.4 -14.2)"/><path class="cls-11" d="M31.6,317.5v30.76c0,3.21,5,3.22,5,0V317.5c0-3.21-5-3.22-5,0Z" transform="translate(-22.4 -14.2)"/><path class="cls-11" d="M38.34,246v.65a1.88,1.88,0,0,0,.22,1,2.16,2.16,0,0,0,1.32,1.32,1.88,1.88,0,0,0,1,.22l.67-.09a2.5,2.5,0,0,0,1.1-.64l.39-.51a2.43,2.43,0,0,0,.34-1.26V246a2,2,0,0,0-.21-1,2.05,2.05,0,0,0-.52-.81,1.93,1.93,0,0,0-.81-.51,1.86,1.86,0,0,0-1-.22l-.66.09a2.48,2.48,0,0,0-1.11.64l-.39.51a2.53,2.53,0,0,0-.34,1.26Z" transform="translate(-22.4 -14.2)"/></svg>